<svg width="42" height="42" viewBox="0 0 42 42" fill="none" xmlns="http://www.w3.org/2000/svg">
<path d="M38.8254 17.735L9.96188 7.02668H9.94055C9.53406 6.88661 9.09642 6.86344 8.67741 6.95981C8.2584 7.05619 7.87486 7.26823 7.57041 7.57182C7.26596 7.87542 7.05284 8.25836 6.95529 8.6771C6.85774 9.09583 6.87967 9.53354 7.0186 9.94043C7.0186 9.94043 7.0186 9.95519 7.0186 9.96176L17.7352 38.8253C17.888 39.2762 18.1793 39.6673 18.5677 39.9428C18.956 40.2183 19.4214 40.364 19.8975 40.3593H19.9402C20.4258 40.356 20.8976 40.1967 21.2858 39.9048C21.674 39.613 21.958 39.204 22.0959 38.7383V38.7137L25.7283 25.7364L38.7188 22.104H38.7434C39.2049 21.9616 39.6099 21.6773 39.9006 21.2915C40.1913 20.9056 40.3529 20.438 40.3625 19.955C40.3722 19.4721 40.2293 18.9984 39.9542 18.6013C39.6791 18.2042 39.2859 17.904 38.8303 17.7432L38.8254 17.735ZM38.1691 20.2124L24.6734 23.9858C24.5106 24.0314 24.3623 24.1181 24.2427 24.2377C24.1232 24.3572 24.0364 24.5055 23.9909 24.6683L20.2174 38.1641C20.1993 38.2303 20.1593 38.2884 20.1038 38.329C20.0484 38.3695 19.9809 38.39 19.9123 38.3872C19.8421 38.3934 19.7719 38.3746 19.7143 38.334C19.6567 38.2935 19.6152 38.2339 19.5973 38.1657C19.5979 38.1592 19.5979 38.1526 19.5973 38.146L8.87743 9.2891C8.85931 9.23182 8.85727 9.17067 8.87152 9.1123C8.88578 9.05394 8.91578 9.00061 8.95826 8.95813C9.00074 8.91565 9.05407 8.88565 9.11243 8.8714C9.17079 8.85714 9.23195 8.85919 9.28923 8.8773L38.1495 19.584H38.1691C38.2342 19.606 38.2907 19.6478 38.3308 19.7036C38.3708 19.7593 38.3923 19.8263 38.3923 19.8949C38.3923 19.9636 38.3708 20.0305 38.3308 20.0863C38.2907 20.1421 38.2342 20.1839 38.1691 20.2058V20.2124Z" fill="#16A34A"/>
</svg>
