<svg width="32" height="30" viewBox="0 0 32 30" fill="none" xmlns="http://www.w3.org/2000/svg">
<path d="M25 7.7486V19.3974C25 19.6351 24.8947 19.863 24.7071 20.031C24.5196 20.1991 24.2652 20.2935 24 20.2935C23.7348 20.2935 23.4804 20.1991 23.2929 20.031C23.1054 19.863 23 19.6351 23 19.3974V9.91148L8.70751 22.7196C8.51987 22.8877 8.26537 22.9822 8.00001 22.9822C7.73464 22.9822 7.48015 22.8877 7.29251 22.7196C7.10487 22.5514 6.99945 22.3234 6.99945 22.0856C6.99945 21.8478 7.10487 21.6198 7.29251 21.4517L21.5863 8.64467H11C10.7348 8.64467 10.4804 8.55026 10.2929 8.38222C10.1054 8.21417 10 7.98625 10 7.7486C10 7.51095 10.1054 7.28303 10.2929 7.11499C10.4804 6.94695 10.7348 6.85254 11 6.85254H24C24.2652 6.85254 24.5196 6.94695 24.7071 7.11499C24.8947 7.28303 25 7.51095 25 7.7486Z" fill="#CBD5E1"/>
</svg>
