<svg width="26" height="22" viewBox="0 0 26 22" fill="none" xmlns="http://www.w3.org/2000/svg">
<path d="M19.2501 8.25C19.9059 7.81712 20.3904 7.2136 20.6349 6.52495C20.8793 5.8363 20.8714 5.09741 20.6121 4.41297C20.3528 3.72852 19.8554 3.13321 19.1903 2.71135C18.5252 2.2895 17.7262 2.0625 16.9063 2.0625H9.87505C9.0552 2.0625 8.25613 2.2895 7.59103 2.71135C6.92593 3.13321 6.42852 3.72852 6.16926 4.41297C5.91 5.09741 5.90203 5.8363 6.14648 6.52495C6.39094 7.2136 6.87542 7.81712 7.5313 8.25C7.0347 8.57751 6.63392 9.00442 6.36215 9.49538C6.09038 9.98633 5.95544 10.5272 5.96852 11.0732C5.9816 11.6192 6.14231 12.1546 6.43735 12.635C6.73238 13.1155 7.15325 13.5271 7.66509 13.8359C7.0829 14.2255 6.62332 14.7393 6.32987 15.3288C6.03642 15.9183 5.91881 16.564 5.98817 17.2046C6.05754 17.8453 6.31159 18.4598 6.72626 18.99C7.14093 19.5201 7.7025 19.9483 8.35781 20.2341C9.01311 20.5198 9.74045 20.6537 10.471 20.6229C11.2015 20.5922 11.911 20.3979 12.5323 20.0584C13.1536 19.7189 13.6662 19.2455 14.0215 18.6829C14.3768 18.1204 14.563 17.4873 14.5626 16.8438V13.75C15.3914 14.297 16.4331 14.5319 17.4587 14.403C18.4843 14.274 19.4097 13.7918 20.0313 13.0625C20.6529 12.3332 20.9198 11.4164 20.7733 10.5139C20.6268 9.61135 20.0789 8.79701 19.2501 8.25ZM19.2501 5.5C19.2501 6.04701 19.0031 6.57161 18.5636 6.95841C18.124 7.3452 17.5279 7.5625 16.9063 7.5625H14.5626V3.4375H16.9063C17.5279 3.4375 18.124 3.6548 18.5636 4.04159C19.0031 4.42839 19.2501 4.95299 19.2501 5.5ZM7.5313 5.5C7.5313 4.95299 7.77823 4.42839 8.21777 4.04159C8.65731 3.6548 9.25345 3.4375 9.87505 3.4375H13.0001V7.5625H9.87505C9.25345 7.5625 8.65731 7.3452 8.21777 6.95841C7.77823 6.57161 7.5313 6.04701 7.5313 5.5ZM9.87505 13.0625C9.25345 13.0625 8.65731 12.8452 8.21777 12.4584C7.77823 12.0716 7.5313 11.547 7.5313 11C7.5313 10.453 7.77823 9.92839 8.21777 9.54159C8.65731 9.1548 9.25345 8.9375 9.87505 8.9375H13.0001V13.0625H9.87505ZM13.0001 16.8438C13.0001 17.3197 12.8397 17.7849 12.5392 18.1806C12.2388 18.5763 11.8117 18.8847 11.3121 19.0668C10.8124 19.249 10.2626 19.2966 9.73223 19.2038C9.20181 19.1109 8.71459 18.8817 8.33218 18.5452C7.94977 18.2087 7.68935 17.78 7.58384 17.3132C7.47834 16.8464 7.53249 16.3626 7.73944 15.9229C7.9464 15.4832 8.29687 15.1074 8.74654 14.843C9.19621 14.5786 9.72487 14.4375 10.2657 14.4375H13.0001V16.8438ZM16.9063 13.0625C16.4428 13.0625 15.9896 12.9415 15.6042 12.7149C15.2188 12.4883 14.9184 12.1662 14.741 11.7893C14.5636 11.4124 14.5172 10.9977 14.6076 10.5976C14.698 10.1975 14.9212 9.83004 15.249 9.54159C15.5768 9.25315 15.9944 9.05671 16.4491 8.97713C16.9037 8.89755 17.375 8.93839 17.8032 9.0945C18.2315 9.2506 18.5975 9.51496 18.8551 9.85414C19.1126 10.1933 19.2501 10.5921 19.2501 11C19.2501 11.547 19.0031 12.0716 18.5636 12.4584C18.124 12.8452 17.5279 13.0625 16.9063 13.0625Z" fill="#CBD5E1"/>
</svg>
