<svg width="18" height="22" viewBox="0 0 18 22" fill="none" xmlns="http://www.w3.org/2000/svg">
<path d="M9 0C4.0275 0 0 5.0503 0 11.2793C0 16.2638 2.5785 20.4907 6.15375 21.9805C6.60375 22.0867 6.76875 21.738 6.76875 21.4382C6.76875 21.1703 6.76125 20.4606 6.7575 19.5207C4.254 20.2012 3.726 18.0074 3.726 18.0074C3.3165 16.7056 2.72475 16.3578 2.72475 16.3578C1.9095 15.6585 2.78775 15.6726 2.78775 15.6726C3.6915 15.7515 4.16625 16.8343 4.16625 16.8343C4.96875 18.5591 6.273 18.061 6.7875 17.7724C6.8685 17.043 7.10025 16.5458 7.3575 16.2638C5.35875 15.9818 3.258 15.0118 3.258 10.69C3.258 9.45863 3.60675 8.45289 4.18425 7.66334C4.083 7.37854 3.77925 6.23181 4.263 4.67809C4.263 4.67809 5.01675 4.37543 6.738 5.83422C7.458 5.58325 8.223 5.45918 8.988 5.45354C9.753 5.45918 10.518 5.58325 11.238 5.83422C12.948 4.37543 13.7017 4.67809 13.7017 4.67809C14.1855 6.23181 13.8818 7.37854 13.7917 7.66334C14.3655 8.45289 14.7142 9.45863 14.7142 10.69C14.7142 15.0231 12.6105 15.9771 10.608 16.2544C10.923 16.5928 11.2155 17.2846 11.2155 18.3411C11.2155 19.8506 11.2043 21.0631 11.2043 21.4297C11.2043 21.7258 11.3617 22.0783 11.823 21.9655C15.4237 20.486 18 16.2563 18 11.2793C18 5.0503 13.9703 0 9 0Z" fill="#CBD5E1"/>
</svg>
