<svg width="15" height="15" viewBox="0 0 15 15" fill="none" xmlns="http://www.w3.org/2000/svg">
<g clip-path="url(#clip0_36_7)">
<path d="M12.2057 4.43437C12.3489 3.97218 12.3949 3.48531 12.3406 3.00448C12.2864 2.52364 12.1331 2.05926 11.8904 1.64062C11.8493 1.56934 11.7901 1.51016 11.7188 1.46902C11.6475 1.42787 11.5667 1.40622 11.4844 1.40624C10.9384 1.4051 10.3997 1.53167 9.91136 1.77584C9.42302 2.02001 8.99855 2.37502 8.67188 2.81249H7.26562C6.93895 2.37502 6.51448 2.02001 6.02614 1.77584C5.53779 1.53167 4.99911 1.4051 4.45312 1.40624C4.37082 1.40622 4.28997 1.42787 4.21869 1.46902C4.14741 1.51016 4.08822 1.56934 4.04707 1.64062C3.8044 2.05926 3.65111 2.52364 3.59685 3.00448C3.5426 3.48531 3.58856 3.97218 3.73184 4.43437C3.44222 4.93987 3.28709 5.51119 3.28125 6.09374V6.56249C3.28224 7.35562 3.57016 8.12161 4.09185 8.71901C4.61354 9.31641 5.33376 9.70488 6.11953 9.81269C5.79879 10.2231 5.6247 10.7291 5.625 11.25V11.7187H4.21875C3.84579 11.7187 3.4881 11.5706 3.22438 11.3069C2.96066 11.0431 2.8125 10.6855 2.8125 10.3125C2.8125 10.0047 2.75188 9.69994 2.63409 9.41558C2.51631 9.13122 2.34367 8.87285 2.12603 8.65521C1.90839 8.43757 1.65002 8.26493 1.36566 8.14715C1.08131 8.02937 0.776536 7.96874 0.46875 7.96874C0.34443 7.96874 0.225201 8.01813 0.137294 8.10604C0.049386 8.19394 0 8.31317 0 8.43749C0 8.56181 0.049386 8.68104 0.137294 8.76895C0.225201 8.85686 0.34443 8.90624 0.46875 8.90624C0.841711 8.90624 1.1994 9.0544 1.46312 9.31812C1.72684 9.58185 1.875 9.93953 1.875 10.3125C1.875 10.9341 2.12193 11.5302 2.56147 11.9698C3.00101 12.4093 3.59715 12.6562 4.21875 12.6562H5.625V13.5937C5.625 13.7181 5.67439 13.8373 5.76229 13.9252C5.8502 14.0131 5.96943 14.0625 6.09375 14.0625C6.21807 14.0625 6.3373 14.0131 6.42521 13.9252C6.51311 13.8373 6.5625 13.7181 6.5625 13.5937V11.25C6.5625 10.877 6.71066 10.5193 6.97438 10.2556C7.2381 9.9919 7.59579 9.84374 7.96875 9.84374C8.34171 9.84374 8.6994 9.9919 8.96312 10.2556C9.22684 10.5193 9.375 10.877 9.375 11.25V13.5937C9.375 13.7181 9.42439 13.8373 9.51229 13.9252C9.6002 14.0131 9.71943 14.0625 9.84375 14.0625C9.96807 14.0625 10.0873 14.0131 10.1752 13.9252C10.2631 13.8373 10.3125 13.7181 10.3125 13.5937V11.25C10.3128 10.7291 10.1387 10.2231 9.81797 9.81269C10.6037 9.70488 11.324 9.31641 11.8457 8.71901C12.3673 8.12161 12.6553 7.35562 12.6562 6.56249V6.09374C12.6504 5.51119 12.4953 4.93987 12.2057 4.43437ZM11.7188 6.56249C11.7188 7.18409 11.4718 7.78024 11.0323 8.21977C10.5927 8.65931 9.9966 8.90624 9.375 8.90624H6.5625C5.9409 8.90624 5.34476 8.65931 4.90522 8.21977C4.46568 7.78024 4.21875 7.18409 4.21875 6.56249V6.09374C4.2245 5.62501 4.36483 5.1678 4.62305 4.77655C4.67118 4.71311 4.70236 4.63845 4.71364 4.55961C4.72491 4.48077 4.71592 4.40036 4.6875 4.32597C4.5654 4.01108 4.50664 3.6752 4.51459 3.33757C4.52253 2.99993 4.59702 2.66719 4.73379 2.35839C5.11741 2.39966 5.48683 2.52674 5.81465 2.73021C6.14248 2.93368 6.4203 3.20832 6.62754 3.53378C6.66977 3.59982 6.72789 3.65421 6.79657 3.69198C6.86526 3.72976 6.94232 3.7497 7.0207 3.74999H8.91621C8.99489 3.75 9.07231 3.73019 9.14133 3.69241C9.21035 3.65462 9.26874 3.60007 9.31113 3.53378C9.51834 3.20829 9.79616 2.93363 10.124 2.73016C10.4518 2.52668 10.8212 2.39962 11.2049 2.35839C11.3415 2.66726 11.4158 3.00005 11.4235 3.33768C11.4312 3.67532 11.3723 4.01116 11.25 4.32597C11.2217 4.39965 11.2122 4.47925 11.2224 4.55752C11.2327 4.6358 11.2623 4.71028 11.3086 4.77421C11.5694 5.16546 11.7118 5.62361 11.7188 6.09374V6.56249Z" fill="#CBD5E1"/>
</g>
<defs>
<clipPath id="clip0_36_7">
<rect width="15" height="15" fill="white"/>
</clipPath>
</defs>
</svg>
