<svg width="22" height="23" viewBox="0 0 22 23" fill="none" xmlns="http://www.w3.org/2000/svg">
<path d="M0 0.5H22V22.5H0V0.5ZM20.1978 17.253C20.0374 16.2493 19.3838 15.4059 17.4451 14.6194C16.7704 14.3032 16.0206 14.0832 15.7978 13.5744C15.7144 13.2719 15.7016 13.1069 15.7557 12.9282C15.8932 12.336 16.5944 12.1582 17.1444 12.3232C17.5019 12.4332 17.8319 12.7082 18.0391 13.1482C18.9869 12.5285 18.9869 12.5285 19.6478 12.1169C19.4003 11.7319 19.2775 11.566 19.1107 11.4019C18.5332 10.7557 17.7641 10.4257 16.5128 10.4541L15.8666 10.5357C15.2469 10.6869 14.6566 11.0169 14.2991 11.4569C13.2541 12.6403 13.5557 14.7028 14.8207 15.5553C16.0719 16.4903 17.9016 16.6957 18.1353 17.5766C18.3553 18.6491 17.3378 18.9928 16.3332 18.8691C15.5898 18.7041 15.1782 18.3319 14.7244 17.6444L13.0469 18.6078C13.2394 19.0478 13.4594 19.2394 13.7894 19.6244C15.3844 21.2341 19.3719 21.1516 20.0878 18.7041C20.1144 18.6216 20.3078 18.0578 20.1557 17.1916L20.1978 17.253ZM11.9634 10.6118H9.90275C9.90275 12.3883 9.8945 14.1538 9.8945 15.933C9.8945 17.0623 9.95225 18.0991 9.768 18.4181C9.4655 19.0497 8.68633 18.969 8.3325 18.8581C7.9695 18.6784 7.78525 18.4309 7.57167 18.0743C7.51392 17.9781 7.47083 17.8947 7.45525 17.8947L5.78233 18.9259C6.06192 19.5034 6.46983 20.0003 6.996 20.3165C7.77975 20.784 8.833 20.9353 9.93575 20.6878C10.6535 20.4806 11.2723 20.0543 11.5958 19.3943C12.0633 18.5418 11.9643 17.4968 11.9598 16.3272C11.9708 14.4443 11.9598 12.5606 11.9598 10.6631L11.9634 10.6118Z" fill="#CBD5E1"/>
</svg>
