<svg width="15" height="15" viewBox="0 0 15 15" fill="none" xmlns="http://www.w3.org/2000/svg">
<path d="M12.6562 1.40625H2.34375C2.09511 1.40625 1.85665 1.50502 1.68084 1.68084C1.50502 1.85665 1.40625 2.09511 1.40625 2.34375V12.6562C1.40625 12.9049 1.50502 13.1433 1.68084 13.3192C1.85665 13.495 2.09511 13.5938 2.34375 13.5938H12.6562C12.9049 13.5938 13.1433 13.495 13.3192 13.3192C13.495 13.1433 13.5938 12.9049 13.5938 12.6562V2.34375C13.5938 2.09511 13.495 1.85665 13.3192 1.68084C13.1433 1.50502 12.9049 1.40625 12.6562 1.40625ZM12.6562 12.6562H2.34375V2.34375H12.6562V12.6562ZM5.625 6.5625V10.3125C5.625 10.4368 5.57561 10.556 5.48771 10.644C5.3998 10.7319 5.28057 10.7812 5.15625 10.7812C5.03193 10.7812 4.9127 10.7319 4.82479 10.644C4.73689 10.556 4.6875 10.4368 4.6875 10.3125V6.5625C4.6875 6.43818 4.73689 6.31895 4.82479 6.23104C4.9127 6.14314 5.03193 6.09375 5.15625 6.09375C5.28057 6.09375 5.3998 6.14314 5.48771 6.23104C5.57561 6.31895 5.625 6.43818 5.625 6.5625ZM10.7812 8.20312V10.3125C10.7812 10.4368 10.7319 10.556 10.644 10.644C10.556 10.7319 10.4368 10.7812 10.3125 10.7812C10.1882 10.7812 10.069 10.7319 9.98104 10.644C9.89314 10.556 9.84375 10.4368 9.84375 10.3125V8.20312C9.84375 7.89232 9.72028 7.59425 9.50052 7.37448C9.28075 7.15472 8.98268 7.03125 8.67188 7.03125C8.36107 7.03125 8.063 7.15472 7.84323 7.37448C7.62347 7.59425 7.5 7.89232 7.5 8.20312V10.3125C7.5 10.4368 7.45061 10.556 7.36271 10.644C7.2748 10.7319 7.15557 10.7812 7.03125 10.7812C6.90693 10.7812 6.7877 10.7319 6.69979 10.644C6.61189 10.556 6.5625 10.4368 6.5625 10.3125V6.5625C6.56308 6.44768 6.60578 6.33707 6.68251 6.25165C6.75923 6.16623 6.86464 6.11194 6.97873 6.09907C7.09283 6.08621 7.20768 6.11567 7.3015 6.18187C7.39531 6.24807 7.46157 6.3464 7.4877 6.4582C7.8048 6.24309 8.1745 6.11842 8.55712 6.09757C8.93973 6.07672 9.32079 6.16049 9.65939 6.33988C9.99798 6.51927 10.2813 6.7875 10.479 7.11577C10.6766 7.44404 10.7811 7.81994 10.7812 8.20312ZM5.85938 4.92188C5.85937 5.06094 5.81814 5.19688 5.74088 5.31251C5.66362 5.42814 5.5538 5.51826 5.42532 5.57148C5.29684 5.6247 5.15547 5.63862 5.01908 5.61149C4.88268 5.58436 4.7574 5.51739 4.65907 5.41906C4.56073 5.32073 4.49377 5.19544 4.46664 5.05905C4.43951 4.92266 4.45343 4.78128 4.50665 4.6528C4.55987 4.52432 4.64999 4.41451 4.76561 4.33725C4.88124 4.25999 5.01719 4.21875 5.15625 4.21875C5.34273 4.21875 5.52157 4.29283 5.65343 4.42469C5.7853 4.55655 5.85937 4.73539 5.85938 4.92188Z" fill="#CBD5E1"/>
</svg>
