<svg width="26" height="25" viewBox="0 0 26 25" fill="none" xmlns="http://www.w3.org/2000/svg">
<path d="M7.94678 20.3128L12.3779 6.0184H16.1011L9.82666 23.7918H7.34863L7.94678 20.3128ZM3.85742 6.0184L8.26416 20.3128L8.89893 23.7918H6.39648L0.146484 6.0184H3.85742Z" fill="#16A34A"/>
<path d="M20.9985 19.1776C20.9985 18.8358 20.9456 18.5306 20.8398 18.2621C20.7422 17.9854 20.5591 17.7372 20.2905 17.5174C20.0301 17.2896 19.6598 17.0698 19.1797 16.8582C18.7077 16.6385 18.0973 16.4107 17.3486 16.1747C16.5186 15.9142 15.7454 15.6213 15.0293 15.2957C14.3132 14.9702 13.6825 14.5918 13.1372 14.1605C12.6001 13.7292 12.181 13.2328 11.8799 12.6712C11.5788 12.1016 11.4282 11.4424 11.4282 10.6937C11.4282 9.96127 11.5828 9.29396 11.8921 8.69174C12.2095 8.08953 12.6571 7.57276 13.2349 7.14145C13.8127 6.702 14.4922 6.36427 15.2734 6.12827C16.0628 5.89226 16.9336 5.77426 17.8857 5.77426C19.2041 5.77426 20.3434 6.01433 21.3037 6.49448C22.2721 6.97462 23.0208 7.62566 23.5498 8.4476C24.0788 9.26954 24.3433 10.1932 24.3433 11.2186H20.9985C20.9985 10.6652 20.8805 10.1769 20.6445 9.75375C20.4167 9.33058 20.0667 8.99692 19.5947 8.75278C19.1309 8.50864 18.5449 8.38657 17.8369 8.38657C17.1533 8.38657 16.5837 8.48829 16.1279 8.69174C15.6803 8.89519 15.3426 9.17189 15.1147 9.52182C14.895 9.87175 14.7852 10.2624 14.7852 10.6937C14.7852 11.0192 14.8625 11.3122 15.0171 11.5726C15.1717 11.8249 15.4036 12.065 15.7129 12.2928C16.0221 12.5125 16.4046 12.7201 16.8604 12.9154C17.3242 13.1025 17.8613 13.2897 18.4717 13.4769C19.4482 13.7699 20.3027 14.0954 21.0352 14.4535C21.7757 14.8115 22.3901 15.2184 22.8784 15.6742C23.3748 16.1299 23.7451 16.6426 23.9893 17.2122C24.2415 17.7819 24.3677 18.4289 24.3677 19.1532C24.3677 19.9181 24.2171 20.6017 23.916 21.2039C23.6149 21.8062 23.1836 22.3189 22.6221 22.742C22.0605 23.1652 21.3851 23.4867 20.5957 23.7064C19.8145 23.9261 18.9396 24.036 17.9712 24.036C17.1086 24.036 16.2541 23.922 15.4077 23.6942C14.5695 23.4582 13.8086 23.1082 13.125 22.6444C12.4414 22.1724 11.8962 21.5783 11.4893 20.8622C11.0824 20.1379 10.8789 19.2915 10.8789 18.3231H14.248C14.248 18.8846 14.3376 19.3648 14.5166 19.7635C14.7038 20.1541 14.9642 20.4756 15.2979 20.7279C15.6396 20.972 16.0384 21.1511 16.4941 21.265C16.9499 21.3789 17.4422 21.4359 17.9712 21.4359C18.6548 21.4359 19.2163 21.3423 19.6558 21.1551C20.1034 20.9598 20.437 20.6913 20.6567 20.3495C20.8846 20.0077 20.9985 19.617 20.9985 19.1776Z" fill="#16A34A"/>
</svg>
