<svg width="32" height="26" viewBox="0 0 32 26" fill="none" xmlns="http://www.w3.org/2000/svg">
<path d="M27 15.045C27 15.2783 26.9122 15.5021 26.7559 15.6671C26.5996 15.8321 26.3877 15.9248 26.1667 15.9248H7.83333C7.61232 15.9248 7.40036 15.8321 7.24408 15.6671C7.0878 15.5021 7 15.2783 7 15.045C7 14.8116 7.0878 14.5878 7.24408 14.4228C7.40036 14.2578 7.61232 14.1651 7.83333 14.1651H26.1667C26.3877 14.1651 26.5996 14.2578 26.7559 14.4228C26.9122 14.5878 27 14.8116 27 15.045ZM7.83333 8.8862H26.1667C26.3877 8.8862 26.5996 8.7935 26.7559 8.62851C26.9122 8.46351 27 8.23972 27 8.00638C27 7.77303 26.9122 7.54925 26.7559 7.38425C26.5996 7.21925 26.3877 7.12656 26.1667 7.12656H7.83333C7.61232 7.12656 7.40036 7.21925 7.24408 7.38425C7.0878 7.54925 7 7.77303 7 8.00638C7 8.23972 7.0878 8.46351 7.24408 8.62851C7.40036 8.7935 7.61232 8.8862 7.83333 8.8862ZM26.1667 21.2037H7.83333C7.61232 21.2037 7.40036 21.2964 7.24408 21.4614C7.0878 21.6264 7 21.8502 7 22.0835C7 22.3169 7.0878 22.5407 7.24408 22.7057C7.40036 22.8707 7.61232 22.9633 7.83333 22.9633H26.1667C26.3877 22.9633 26.5996 22.8707 26.7559 22.7057C26.9122 22.5407 27 22.3169 27 22.0835C27 21.8502 26.9122 21.6264 26.7559 21.4614C26.5996 21.2964 26.3877 21.2037 26.1667 21.2037Z" fill="#16A34A"/>
</svg>
