<svg width="24" height="16" viewBox="0 0 24 16" fill="none" xmlns="http://www.w3.org/2000/svg">
<path d="M16.2902 1.67083C16.1782 1.67083 16.1022 1.68447 16.0233 1.70297V1.71564H16.037C16.0896 1.81693 16.1792 1.89094 16.2454 1.98152C16.298 2.08573 16.3428 2.18994 16.3954 2.29318L16.409 2.27857C16.5006 2.21429 16.5454 2.11105 16.5454 1.95425C16.5064 1.90848 16.5006 1.8627 16.4674 1.8179C16.4285 1.75265 16.3447 1.72051 16.2921 1.66889L16.2902 1.67083ZM5.93236 14.521H5.02952C5.00413 13.0861 4.9164 11.6531 4.76656 10.2259H4.75877L3.38552 14.521H2.69889L1.33538 10.2259H1.32564C1.21899 11.6553 1.15565 13.0877 1.13572 14.521H0.312744C0.366311 12.6062 0.49974 10.8103 0.712059 9.13509H1.83209L3.13229 13.0932H3.14009L4.45198 9.13509H5.51844C5.75413 11.0976 5.89243 12.8945 5.93529 14.521H5.93236ZM9.84467 10.5473C9.47652 12.539 8.9915 13.9882 8.39156 14.8911C7.92212 15.5884 7.40788 15.9361 6.84981 15.9361C6.7008 15.9361 6.51868 15.8913 6.29857 15.8017V15.3206C6.4057 15.3371 6.53231 15.3459 6.67451 15.3459C6.93552 15.3459 7.14492 15.2728 7.30464 15.1297C7.49651 14.9544 7.59195 14.7576 7.59195 14.5404C7.59195 14.3895 7.51696 14.0827 7.36795 13.621L6.38038 10.5473H7.26666L7.97471 12.8458C8.13444 13.3678 8.20164 13.7321 8.17437 13.9395C8.56394 12.9033 8.8347 11.7706 8.98761 10.5473H9.84467ZM21.8485 14.521H19.287V9.13509H20.1489V13.8587H21.8485V14.521ZM18.615 14.6524L17.6255 14.1655C17.7131 14.0915 17.7978 14.0116 17.8738 13.922C18.2955 13.4292 18.5049 12.6968 18.5049 11.7277C18.5049 9.94541 17.8056 9.05328 16.4061 9.05328C15.7204 9.05328 15.1848 9.27924 14.7991 9.73212C14.3803 10.2269 14.1699 10.9554 14.1699 11.9186C14.1699 12.8653 14.355 13.5607 14.729 14.0028C15.0698 14.4021 15.5831 14.6018 16.2707 14.6018C16.5278 14.6018 16.7635 14.5697 16.9768 14.5064L18.2673 15.2582L18.6179 14.6524H18.615ZM15.4088 13.4428C15.1896 13.0922 15.0806 12.5273 15.0806 11.7521C15.0806 10.3954 15.4935 9.71653 16.3175 9.71653C16.7489 9.71653 17.0674 9.87918 17.269 10.2035C17.4872 10.5561 17.5962 11.1151 17.5962 11.8816C17.5962 13.249 17.1833 13.9347 16.3593 13.9347C15.9259 13.9347 15.6094 13.772 15.4068 13.4477L15.4088 13.4428ZM13.794 13.0289C13.794 13.4866 13.6265 13.8626 13.2914 14.1548C12.9564 14.4469 12.5094 14.593 11.9435 14.593C11.4147 14.593 10.9072 14.4255 10.4115 14.0915L10.6423 13.6279C11.0689 13.8421 11.4536 13.9473 11.8013 13.9473C12.1247 13.9473 12.3789 13.8762 12.5639 13.7331C12.6564 13.6633 12.7311 13.5727 12.7819 13.4686C12.8326 13.3645 12.8581 13.2499 12.8561 13.1341C12.8561 12.8127 12.6321 12.54 12.225 12.3111C11.8471 12.1037 11.0923 11.6712 11.0923 11.6712C10.6813 11.3722 10.4768 11.0518 10.4768 10.5249C10.4768 10.0866 10.6297 9.73601 10.9345 9.46818C11.2413 9.19742 11.6357 9.064 12.1227 9.064C12.6214 9.064 13.0772 9.19645 13.4862 9.46331L13.2788 9.9269C12.9519 9.78332 12.5995 9.70714 12.2425 9.7029C11.9669 9.7029 11.7536 9.76913 11.6056 9.90353C11.5304 9.96576 11.4699 10.0437 11.4281 10.1319C11.3864 10.2201 11.3645 10.3163 11.364 10.4139C11.364 10.7333 11.5919 11.008 12.0127 11.2417C12.3954 11.4511 13.1687 11.8943 13.1687 11.8943C13.5904 12.1913 13.7998 12.5078 13.7998 13.0318L13.794 13.0289ZM22.9315 7.32941C22.4104 7.31578 22.0062 7.36837 21.6683 7.51251C21.5709 7.55147 21.4151 7.55147 21.4014 7.67516C21.455 7.72678 21.4628 7.81151 21.5086 7.88358C21.5865 8.01409 21.7209 8.18843 21.8455 8.27997C21.9819 8.38711 22.1182 8.49035 22.2614 8.5819C22.5146 8.73773 22.8019 8.83025 23.0503 8.98705C23.1915 9.0786 23.3357 9.1945 23.4788 9.2919C23.5499 9.34059 23.5957 9.42825 23.6873 9.45941V9.43993C23.6424 9.3815 23.6288 9.29677 23.585 9.23151C23.5197 9.16626 23.4545 9.10782 23.3902 9.04354C23.199 8.79155 22.9708 8.56991 22.7133 8.38613C22.5049 8.24394 22.0491 8.04526 21.9634 7.80664L21.9507 7.79301C22.0929 7.78035 22.2624 7.72873 22.3987 7.68977C22.6198 7.63133 22.8224 7.64399 23.0513 7.58653C23.1545 7.56024 23.2587 7.5281 23.3629 7.49498V7.43655C23.2461 7.31967 23.1584 7.16092 23.0376 7.05184C22.7005 6.75719 22.3411 6.4892 21.9624 6.25029C21.7579 6.11978 21.4988 6.03602 21.2836 5.92499C21.2057 5.88604 21.0751 5.86656 21.0303 5.8013C20.9135 5.65911 20.8453 5.47017 20.7625 5.3007C20.5713 4.92971 20.3936 4.5519 20.2298 4.16801C20.1129 3.91284 20.0418 3.65864 19.8986 3.4249C19.2266 2.31753 18.4991 1.64649 17.38 0.990052C17.1395 0.853701 16.8512 0.795265 16.5463 0.723193C16.3837 0.715402 16.221 0.703714 16.0594 0.696897C15.9522 0.651122 15.849 0.527432 15.7574 0.468021C15.3874 0.234276 14.429 -0.272171 14.1563 0.397898C13.981 0.820587 14.4163 1.23743 14.5673 1.4517C14.6793 1.60071 14.8205 1.77115 14.8984 1.93867C14.9442 2.05164 14.9569 2.16754 15.0026 2.28539C15.1059 2.57173 15.2043 2.89118 15.3406 3.15901C15.4117 3.29536 15.4896 3.43853 15.5812 3.56125C15.6338 3.63235 15.7234 3.66546 15.7438 3.78233C15.6523 3.91479 15.6464 4.10763 15.5938 4.2693C15.3601 5.00657 15.4516 5.91818 15.7828 6.46066C15.887 6.62233 16.1353 6.98074 16.4674 6.84342C16.7596 6.72655 16.6954 6.35645 16.7791 6.03018C16.7986 5.95227 16.7859 5.90065 16.8259 5.84805V5.86266C16.9174 6.04576 17.009 6.2201 17.0927 6.4032C17.2933 6.72265 17.644 7.05379 17.9371 7.27487C18.093 7.39174 18.2166 7.59432 18.4114 7.66639V7.64692H18.3968C18.3549 7.59043 18.2994 7.56316 18.2468 7.51738C18.1233 7.3965 18.0094 7.26625 17.906 7.12781C17.6315 6.75286 17.3882 6.35612 17.1784 5.94155C17.0713 5.73702 16.9817 5.51691 16.896 5.31531C16.857 5.23739 16.857 5.12052 16.7918 5.08156C16.6944 5.22376 16.5512 5.34745 16.4801 5.52276C16.3564 5.80325 16.3438 6.14803 16.297 6.50643C16.2707 6.51325 16.2834 6.50643 16.2707 6.52007C16.0623 6.46943 15.9912 6.25321 15.9133 6.07206C15.7185 5.60944 15.6864 4.86632 15.8548 4.33358C15.9006 4.19723 16.0954 3.76675 16.0175 3.63624C15.9766 3.51255 15.848 3.44145 15.7769 3.34114C15.6855 3.21057 15.6072 3.07127 15.5432 2.92527C15.3874 2.56101 15.3094 2.1578 15.14 1.79355C15.0621 1.62506 14.9257 1.44878 14.8147 1.29392C14.691 1.11861 14.5546 0.994922 14.4563 0.787473C14.4241 0.716376 14.3784 0.598529 14.43 0.520614C14.4436 0.468021 14.4709 0.447569 14.5215 0.43296C14.6072 0.362836 14.8478 0.454386 14.9325 0.493344C15.1731 0.590738 15.3757 0.682288 15.5773 0.818639C15.6688 0.882919 15.7672 1.00661 15.8841 1.03875H16.0204C16.2288 1.08452 16.4636 1.05238 16.6583 1.10985C17.0041 1.22088 17.3158 1.38255 17.5953 1.55786C18.4566 2.10805 19.1571 2.87613 19.6259 3.78428C19.7038 3.93427 19.7379 4.07159 19.809 4.22742C19.9454 4.54882 20.1139 4.87314 20.2522 5.18383C20.3885 5.49062 20.52 5.80325 20.7158 6.05745C20.8132 6.1938 21.2047 6.2649 21.38 6.336C21.5095 6.39443 21.7111 6.448 21.828 6.5191C22.052 6.65545 22.2702 6.81128 22.4805 6.96126C22.5877 7.03528 22.912 7.19793 22.9315 7.32941Z" fill="#CBD5E1"/>
</svg>
