<svg width="18" height="20" viewBox="0 0 18 20" fill="none" xmlns="http://www.w3.org/2000/svg">
<g clip-path="url(#clip0_2_36)">
<path d="M10.3858 18.1328L14.4058 5.02524L14.4089 5.01333C14.469 4.80236 14.4782 4.57542 14.4356 4.35834C14.393 4.14126 14.3002 3.94275 14.1678 3.78538C14.0355 3.62802 13.8688 3.51812 13.6869 3.46819C13.5049 3.41826 13.3149 3.43031 13.1385 3.50295C13.1351 3.50387 13.1318 3.50513 13.1285 3.50671L2.18018 8.40122C1.98494 8.48166 1.81598 8.63355 1.69727 8.83531C1.57857 9.03707 1.51617 9.27844 1.51893 9.52514L1.51901 9.54747C1.52147 9.79905 1.59156 10.0431 1.71894 10.2437C1.84631 10.4443 2.02424 10.5908 2.22649 10.6615L2.23897 10.666L7.1061 12.275L8.48704 18.076L8.49083 18.0909C8.55334 18.3301 8.67742 18.5398 8.8454 18.6901C9.01339 18.8404 9.21672 18.9237 9.42648 18.9281C9.63625 18.9325 9.84175 18.8578 10.0138 18.7146C10.1858 18.5714 10.3155 18.3671 10.3845 18.1306L10.3858 18.1328ZM7.98961 11.629C7.96616 11.5307 7.92196 11.4413 7.86124 11.3693C7.80053 11.2973 7.72534 11.2451 7.64291 11.2178L2.5162 9.52325L2.52678 9.51875L13.4695 4.62575L9.44884 17.7259L9.44514 17.7378L7.98961 11.629Z" fill="#1C1917"/>
</g>
<defs>
<clipPath id="clip0_2_36">
<rect width="19.0543" height="15.9562" fill="white" transform="translate(16.9458 0.445801) rotate(89.8057)"/>
</clipPath>
</defs>
</svg>
