<svg width="24" height="26" viewBox="0 0 24 26" fill="none" xmlns="http://www.w3.org/2000/svg">
<path d="M11.9983 25.6815C11.6401 25.6815 11.283 25.5927 10.9694 25.4205L7.69289 23.5848C7.2041 23.3259 7.44291 23.234 7.60361 23.1801C8.25645 22.9656 8.38814 22.9159 9.08562 22.5418C9.15816 22.5027 9.25413 22.5175 9.3289 22.5598L11.8465 23.9748C11.8933 23.9983 11.9454 24.0106 11.9983 24.0106C12.0512 24.0106 12.1033 23.9983 12.1501 23.9748L21.965 18.6106C22.0108 18.5845 22.0486 18.5476 22.0748 18.5035C22.101 18.4594 22.1147 18.4096 22.1146 18.3591V7.63275C22.1145 7.58127 22.1004 7.53068 22.0736 7.48588C22.0468 7.44107 22.0082 7.40357 21.9617 7.37701L12.1512 2.01703C12.105 1.9926 12.0529 1.97977 12 1.97977C11.947 1.97977 11.895 1.9926 11.8488 2.01703L2.04051 7.37807C1.99375 7.40436 1.95493 7.44159 1.92776 7.48619C1.90059 7.5308 1.886 7.58127 1.88539 7.63275V18.3591C1.8856 18.4098 1.90009 18.4595 1.92736 18.5032C1.95462 18.5468 1.99368 18.5828 2.04051 18.6074L4.72888 20.0784C6.18745 20.7696 7.08134 19.9559 7.08134 19.1379V8.54793C7.08134 8.39786 7.20856 8.28056 7.36703 8.28056H8.61133C8.76645 8.28056 8.8959 8.39892 8.8959 8.54793V19.1379C8.8959 20.982 7.83573 22.0388 5.98992 22.0388C5.42301 22.0388 4.97551 22.0388 3.72897 21.4565L1.15331 20.0541C0.840238 19.8815 0.580461 19.6341 0.399913 19.3367C0.219365 19.0392 0.124363 18.7021 0.12439 18.3591V7.63275C0.12439 6.93634 0.518327 6.28536 1.15331 5.93874L10.9683 0.568185C11.2844 0.404371 11.639 0.318512 11.9994 0.318512C12.3598 0.318512 12.7144 0.404371 13.0306 0.568185L22.8444 5.93874C23.4805 6.28642 23.8756 6.93634 23.8756 7.63275V18.3591C23.8749 18.7023 23.7794 19.0393 23.5985 19.3367C23.4176 19.6341 23.1576 19.8814 22.8444 20.0541L13.0306 25.4205C12.7181 25.5927 12.3621 25.6815 11.9983 25.6815ZM19.9228 15.1063C19.9228 13.0984 18.4899 12.5637 15.4734 12.1864C12.4257 11.8049 12.1155 11.6073 12.1155 10.932C12.1155 10.374 12.3777 9.62901 14.6353 9.62901C16.6519 9.62901 17.3951 10.0401 17.7009 11.3273C17.7148 11.3867 17.7497 11.4399 17.7998 11.4782C17.8499 11.5164 17.9122 11.5373 17.9765 11.5376H19.2499C19.2888 11.5372 19.3272 11.5294 19.3628 11.5147C19.3985 11.5 19.4307 11.4787 19.4574 11.452C19.4844 11.4242 19.505 11.3915 19.5178 11.3558C19.5307 11.3202 19.5356 11.2824 19.5322 11.2448C19.3347 9.0277 17.779 7.99417 14.6353 7.99417C11.8365 7.99417 10.167 9.11225 10.167 10.988C10.167 13.0223 11.8276 13.5845 14.5137 13.8361C17.7277 14.1341 17.9765 14.579 17.9765 15.1771C17.9765 16.2159 17.096 16.6587 15.0282 16.6587C12.4313 16.6587 11.8599 16.0415 11.668 14.8178C11.6573 14.7542 11.623 14.6964 11.5712 14.6547C11.5194 14.613 11.4536 14.5903 11.3856 14.5906H10.1168C10.0796 14.5903 10.0427 14.597 10.0082 14.6104C9.97376 14.6237 9.94244 14.6433 9.91608 14.6682C9.88971 14.6931 9.86882 14.7227 9.85461 14.7552C9.84041 14.7878 9.83317 14.8227 9.83332 14.858C9.83332 16.4241 10.7328 18.2904 15.0282 18.2904C18.1395 18.2914 19.9228 17.1321 19.9228 15.1063Z" fill="#CBD5E1"/>
</svg>
