<svg width="24" height="22" viewBox="0 0 24 22" fill="none" xmlns="http://www.w3.org/2000/svg">
<path d="M12 8.96477C11.7337 8.96477 11.47 9.0174 11.224 9.11966C10.978 9.22192 10.7545 9.3718 10.5662 9.56074C10.3779 9.74969 10.2285 9.974 10.1266 10.2209C10.0247 10.4677 9.97227 10.7323 9.97227 10.9995C9.97227 11.2668 10.0247 11.5314 10.1266 11.7782C10.2285 12.0251 10.3779 12.2494 10.5662 12.4384C10.7545 12.6273 10.978 12.7772 11.224 12.8794C11.47 12.9817 11.7337 13.0343 12 13.0343C12.2663 13.0343 12.5299 12.9817 12.7759 12.8794C13.0219 12.7772 13.2455 12.6273 13.4338 12.4384C13.6221 12.2494 13.7714 12.0251 13.8733 11.7782C13.9752 11.5314 14.0277 11.2668 14.0277 10.9995C14.0277 10.7323 13.9752 10.4677 13.8733 10.2209C13.7714 9.974 13.6221 9.74969 13.4338 9.56074C13.2455 9.3718 13.0219 9.22192 12.7759 9.11966C12.5299 9.0174 12.2663 8.96477 12 8.96477ZM6.31976 15.0472L5.87232 14.9331C2.53738 14.0874 0.62439 12.6519 0.62439 10.9957C0.62439 9.33957 2.53738 7.9041 5.87232 7.05842L6.31976 6.94522L6.44584 7.39041C6.78368 8.5583 7.2158 9.69662 7.73792 10.7941L7.83366 10.9967L7.73792 11.1993C7.21493 12.2964 6.78278 13.4348 6.44584 14.603L6.31976 15.0472ZM5.66472 8.09816C3.12986 8.81257 1.57425 9.90558 1.57425 10.9957C1.57425 12.085 3.12986 13.178 5.66472 13.8933C5.97473 12.9039 6.34903 11.936 6.78522 10.9957C6.34853 10.0557 5.97422 9.08773 5.66472 8.09816ZM17.6802 15.0472L17.5541 14.6011C17.2166 13.4332 16.7841 12.2952 16.2611 11.1984L16.1653 10.9957L16.2611 10.7931C16.7839 9.69589 17.2164 8.55753 17.5541 7.38946L17.6802 6.94427L18.1286 7.05747C21.4626 7.90315 23.3756 9.33862 23.3756 10.9957C23.3756 12.6529 21.4626 14.0874 18.1286 14.9331L17.6802 15.0472ZM17.2147 10.9957C17.6698 11.9841 18.0461 12.9554 18.3352 13.8933C20.871 13.178 22.4257 12.085 22.4257 10.9957C22.4257 9.90558 20.8701 8.81352 18.3352 8.09816C18.0256 9.0877 17.6513 10.0557 17.2147 10.9957ZM5.65808 8.0934L5.53201 7.64916C4.59447 4.33302 4.87886 1.95674 6.31218 1.12723C7.71801 0.312936 9.97512 1.27467 12.3403 3.71089L12.6626 4.04288L12.3403 4.37488C11.4999 5.25158 10.732 6.19551 10.0443 7.19731L9.91634 7.3809L9.69357 7.39993C8.48388 7.49562 7.28393 7.68968 6.10552 7.9802L5.65808 8.0934ZM7.45543 1.78646C7.20137 1.78646 6.9767 1.84163 6.78711 1.95103C5.84483 2.49611 5.67799 4.39105 6.32735 6.94807C7.33753 6.72255 8.36129 6.56335 9.39212 6.47148C9.9869 5.62284 10.6367 4.81441 11.3373 4.05144C9.85852 2.60646 8.45837 1.78646 7.45543 1.78646ZM16.5455 21.1563C16.5445 21.1563 16.5445 21.1563 16.5455 21.1563C15.1946 21.1563 13.4598 20.1356 11.6597 18.2806L11.3373 17.9486L11.6597 17.6166C12.4998 16.7396 13.2674 15.7954 13.9547 14.7932L14.0827 14.6096L14.3045 14.5906C15.5148 14.4954 16.7154 14.3017 17.8944 14.0113L18.3419 13.8981L18.4689 14.3433C19.4045 17.6575 19.1211 20.0347 17.6878 20.8633C17.3396 21.0608 16.9454 21.162 16.5455 21.1563ZM12.6626 17.94C14.1414 19.385 15.5416 20.205 16.5445 20.205C16.7976 20.205 17.0242 20.1498 17.2128 20.0405C18.1551 19.4954 18.3229 17.5995 17.6726 15.0425C16.6621 15.2683 15.6381 15.4275 14.6069 15.519C14.0128 16.3683 13.3633 17.1771 12.6626 17.94ZM18.3419 8.0934L17.8944 7.9802C16.7155 7.68885 15.5149 7.49477 14.3045 7.39993L14.0827 7.3809L13.9547 7.19731C13.2677 6.19519 12.5002 5.25122 11.6597 4.37488L11.3373 4.04288L11.6597 3.71089C14.0239 1.27563 16.28 0.313887 17.6878 1.12723C19.1211 1.95674 19.4055 4.33302 18.4689 7.64821L18.3419 8.0934ZM14.6069 6.47148C15.6895 6.57042 16.718 6.73118 17.6726 6.94807C18.3229 4.39105 18.1551 2.49611 17.2128 1.95103C16.2762 1.40785 14.5159 2.24022 12.6626 4.05144C13.3629 4.81444 14.0124 5.62287 14.6069 6.47148ZM7.45543 21.1563C7.05519 21.1621 6.66061 21.061 6.31218 20.8633C4.87886 20.0347 4.59447 17.6585 5.53201 14.3433L5.65714 13.8981L6.10458 14.0113C7.19948 14.2881 8.40718 14.4831 9.69262 14.5906L9.9154 14.6096L10.0424 14.7932C10.7302 15.7952 11.4981 16.7395 12.3384 17.6166L12.6607 17.9486L12.3384 18.2806C10.5392 20.1356 8.80438 21.1563 7.45543 21.1563ZM6.32735 15.0425C5.67704 17.5995 5.84483 19.4954 6.78711 20.0405C7.72275 20.576 9.48218 19.7503 11.3373 17.94C10.637 17.1765 9.98719 16.3678 9.39212 15.519C8.36125 15.4276 7.33746 15.2684 6.32735 15.0425ZM12 15.6399C11.2198 15.6399 10.4178 15.6056 9.61489 15.539L9.39212 15.52L9.26414 15.3364C8.80998 14.6815 8.38303 14.0081 7.98439 13.3178C7.58693 12.6269 7.21817 11.9199 6.87906 11.1984L6.78522 10.9957L6.87906 10.7931C7.21812 10.0716 7.58688 9.36451 7.98439 8.67368C8.37685 7.99257 8.80817 7.31336 9.26414 6.65508L9.39212 6.47148L9.61489 6.45246C11.2024 6.31738 12.7985 6.31738 14.386 6.45246L14.6078 6.47148L14.7349 6.65508C15.6441 7.96504 16.4423 9.34924 17.1209 10.7931L17.2166 10.9957L17.1209 11.1984C16.4439 12.6431 15.6457 14.0274 14.7349 15.3364L14.6078 15.52L14.386 15.539C13.5831 15.6056 12.7801 15.6399 12 15.6399ZM9.91729 14.6087C11.3203 14.7143 12.6797 14.7143 14.0836 14.6087C14.8674 13.4588 15.5633 12.2511 16.1653 10.9957C15.5644 9.73966 14.8681 8.53179 14.0827 7.3828C12.6962 7.27721 11.3038 7.27721 9.91729 7.3828C9.13151 8.53157 8.43521 9.73947 7.83461 10.9957C8.43729 12.2509 9.13349 13.4587 9.91729 14.6087Z" fill="#CBD5E1"/>
</svg>
