<svg width="24" height="16" viewBox="0 0 24 16" fill="none" xmlns="http://www.w3.org/2000/svg">
<path d="M16.0384 0L15.9665 0.597174C15.8554 1.7289 15.8956 2.05269 16.2004 2.4727L16.4946 2.86063L16.1898 5.02634C16.0078 6.31844 15.7845 7.40129 15.6426 7.75715C15.5209 8.06414 15.3791 8.51622 15.3484 8.75906C15.2976 9.04925 15.1251 9.34096 14.8616 9.59908C14.6287 9.80984 14.1716 10.3749 13.8477 10.8286C13.5889 11.1997 13.4107 11.4273 13.3139 11.525L12.9976 11.9236C12.9163 12.1158 12.8551 12.3278 12.8165 12.5513C12.7945 12.7148 12.8069 12.8232 12.8395 12.9026C12.8711 12.979 12.9258 13.0324 13.0005 13.066C13.089 13.0991 13.1801 13.1109 13.2708 13.1012C13.4759 13.0788 13.6789 13.0215 13.8764 12.9301C13.9435 12.9011 13.9962 12.8736 14.0422 12.8492C14.1131 12.7102 14.277 12.4475 14.5674 11.9908C15.3379 10.7797 15.6321 10.1168 15.3283 10.2955C15.2162 10.3597 15.267 10.1978 15.4596 9.87399C15.8659 9.24322 16.0988 8.29018 16.5856 5.30126C16.9709 2.94158 16.9709 2.90798 17.2545 2.90798C17.3878 2.90798 17.7644 2.94463 17.7644 2.94463V0H16.9H16.0384ZM19.7175 4.8339C19.6561 4.8339 19.5545 4.98052 19.4942 5.14242C19.383 5.4326 19.5143 5.60977 21.1875 7.27453C22.1813 8.27796 22.9825 9.13325 22.9624 9.19893C22.9423 9.24627 22.1305 10.0878 21.1578 11.0576C19.3926 12.8018 19.383 12.8186 19.545 13.1745C19.7481 13.5945 19.545 13.7396 21.8363 11.4609L23.5 9.76403V8.4872L21.6437 6.66055C20.6403 5.65864 19.7683 4.8507 19.7175 4.8339ZM4.30267 5.0126C4.25188 5.0126 3.37979 5.83734 2.37642 6.82245L0.5 8.6491V9.92592L2.36588 11.7846C3.40088 12.8018 4.27296 13.6434 4.31321 13.6434C4.35346 13.6434 4.43492 13.4967 4.51638 13.3196C4.63808 13.0126 4.53554 12.8828 2.82204 11.1539C1.19 9.52118 1.0175 9.29515 1.18042 9.11798C1.282 9.00496 2.0525 8.24436 2.88433 7.42115C4.78088 5.56243 4.67929 5.69072 4.52692 5.30278C4.46654 5.14242 4.364 4.99732 4.30363 5.0126H4.30267ZM12.6248 5.04773C12.345 5.04467 11.7432 5.72432 9.9415 8.06872C9.86388 8.36349 9.85717 8.56662 9.89263 8.69797C9.91563 8.78808 9.95779 8.8507 10.0163 8.89652C10.0738 8.94234 10.1485 8.96983 10.2309 8.98052C10.3948 9.00343 10.5884 8.96219 10.7446 8.91332L10.85 8.87514C10.8861 8.79802 10.9335 8.73615 10.988 8.69492C11.0992 8.59717 11.5659 7.91905 12.0326 7.19205C12.8539 5.86636 13.0465 5.26766 12.712 5.07369C12.6846 5.05629 12.6544 5.04748 12.6248 5.04773ZM14.7293 5.96869C14.483 5.97938 14.0393 6.43451 13.2794 7.40129C12.898 7.89461 12.6565 8.16036 12.5271 8.21534L12.0249 8.84765C11.8361 9.39747 11.8083 9.73806 11.8582 9.92592C11.8706 9.97226 11.8888 10.0142 11.9114 10.0493C11.9341 10.0845 11.961 10.1121 11.9904 10.1306C12.0636 10.1767 12.1417 10.2 12.2204 10.1993C12.4085 10.1961 12.5955 10.1524 12.7763 10.0695C12.8705 10.0292 12.9635 9.98231 13.0551 9.92897L13.0829 9.91065L13.1337 9.86788C13.2295 9.67086 13.45 9.29973 13.726 8.87208C14.598 7.53111 15.0437 6.57808 14.9526 6.22222C14.9114 6.04963 14.8405 5.96258 14.7293 5.96869ZM12.4063 7.61817C12.3354 7.63039 12.1763 7.82588 11.8898 8.22604C11.4758 8.80946 11.0244 9.14547 10.8682 8.99579C10.8319 9.00886 10.7955 9.02108 10.759 9.03245C10.5999 9.08285 10.4015 9.12409 10.2242 9.10118C10.1407 9.09311 10.0588 9.06049 9.98271 9.00496C9.91094 8.95267 9.85367 8.8603 9.82171 8.74532C9.78625 8.60786 9.78625 8.4368 9.8265 8.2184L9.20358 9.03398L7.79388 10.8927V13.9061L12.413 8.1069C12.4121 8.04341 12.4173 7.98006 12.4284 7.91905C12.4638 7.71439 12.4619 7.61053 12.4063 7.6197V7.61817ZM14.3939 8.59411C14.324 8.59411 14.207 8.75143 14.0202 9.06758C13.7662 9.4998 13.3666 9.91828 13.1548 10.0038L13.1222 10.0313C13.0874 10.0542 13.0523 10.0756 13.0168 10.0954C12.9593 10.126 12.8845 10.1627 12.7983 10.1993C12.6258 10.2741 12.4111 10.3429 12.2195 10.3352C12.1291 10.3351 12.0396 10.307 11.9559 10.2528C11.877 10.2009 11.8138 10.1024 11.7796 9.97785C11.724 9.76555 11.746 9.46773 11.8678 9.04467L7.79292 14.1596V16H9.58308L13.38 11.247C13.4787 11.0729 13.6273 10.8347 13.8275 10.5368C14.3642 9.74417 14.4859 9.47078 14.4859 9.06605C14.4859 8.75143 14.4639 8.59259 14.3939 8.59259V8.59411ZM15.2976 11.5723L14.9728 12.0886C14.7907 12.3635 14.4658 12.7025 14.2435 12.8476L14.1994 12.8782L14.1965 12.8858L14.1869 12.9011C14.1783 12.9118 14.1745 12.9133 14.1678 12.9179C14.079 12.9714 13.9888 13.0188 13.8975 13.0599C13.6944 13.1541 13.4856 13.213 13.2746 13.2356C13.1748 13.2458 13.0747 13.2319 12.9775 13.1943C12.8932 13.1648 12.8187 13.0864 12.7686 12.9744C12.7226 12.8614 12.7092 12.7102 12.735 12.5239C12.7556 12.3912 12.7862 12.263 12.8261 12.142L9.76229 16H13.8371L14.324 15.1111C14.9929 13.8679 15.2976 12.979 15.2976 12.2184V11.5723Z" fill="#CBD5E1"/>
</svg>
