<svg width="24" height="25" viewBox="0 0 24 25" fill="none" xmlns="http://www.w3.org/2000/svg">
<path d="M0.331665 12.5V24.1683H23.6683V0.831688H0.331665V12.5ZM19.1381 11.5704C19.7312 11.7182 20.1824 11.9817 20.5976 12.4115C20.8125 12.641 21.1314 13.0591 21.1567 13.1602C21.1645 13.1894 20.1493 13.8701 19.5348 14.2522C19.5124 14.2668 19.423 14.1705 19.3238 14.0227C19.0224 13.5852 18.7083 13.3965 18.227 13.3635C17.5191 13.3148 17.064 13.6853 17.0679 14.3037C17.0615 14.4558 17.0957 14.6068 17.1671 14.7413C17.3227 15.0631 17.6124 15.2566 18.5187 15.6485C20.1902 16.368 20.9048 16.8416 21.3492 17.5154C21.8451 18.2671 21.9569 19.4679 21.6195 20.3605C21.25 21.331 20.3311 21.9902 19.0379 22.208C18.6383 22.279 17.6902 22.2683 17.2604 22.1905C16.3231 22.0233 15.4343 21.5604 14.8859 20.9527C14.671 20.7164 14.252 20.097 14.2782 20.0533C14.3456 20.0018 14.4172 19.9559 14.4921 19.9162C14.5971 19.8569 14.989 19.6303 15.3595 19.4154L16.0304 19.0265L16.1714 19.2346C16.3678 19.534 16.7966 19.9454 17.0562 20.0825C17.8011 20.4753 18.823 20.4199 19.3267 19.9677C19.428 19.8824 19.5082 19.7748 19.561 19.6534C19.6138 19.5319 19.6377 19.3999 19.631 19.2676C19.631 18.9973 19.597 18.8787 19.456 18.6745C19.2752 18.4158 18.9047 18.198 17.8526 17.741C16.6488 17.2227 16.1306 16.9009 15.656 16.3894C15.3599 16.0519 15.1412 15.6536 15.0153 15.2226C14.9268 14.893 14.9044 14.0665 14.9744 13.7339C15.2224 12.57 16.1004 11.76 17.3674 11.5189C17.7787 11.4411 18.7345 11.4703 19.1381 11.5704ZM13.6598 12.5447L13.6676 13.5006H10.6289V22.1312H8.48003V13.5006H5.44433V12.5632C5.44433 12.044 5.45503 11.6103 5.46961 11.6006C5.48128 11.585 7.32973 11.5772 9.57005 11.5811L13.6491 11.5928L13.6598 12.5447Z" fill="#CBD5E1"/>
</svg>
