<svg width="13" height="12" viewBox="0 0 13 12" fill="none" xmlns="http://www.w3.org/2000/svg">
<path d="M9.29278 6.78937L7.79278 6.03937C7.73373 6.00995 7.66797 5.99663 7.60213 6.00074C7.53629 6.00486 7.4727 6.02627 7.41778 6.06281L6.72918 6.52219C6.41308 6.34842 6.15296 6.08829 5.97918 5.77219L6.43856 5.08359C6.47511 5.02867 6.49652 4.96508 6.50063 4.89924C6.50475 4.8334 6.49142 4.76764 6.462 4.70859L5.712 3.20859C5.68091 3.14581 5.63286 3.093 5.57329 3.05613C5.51372 3.01926 5.44502 2.99982 5.37497 3C4.87768 3 4.40077 3.19754 4.04914 3.54918C3.69751 3.90081 3.49997 4.37772 3.49997 4.875C3.50121 5.96864 3.9362 7.01713 4.70952 7.79045C5.48284 8.56376 6.53133 8.99876 7.62497 9C7.87119 9 8.11501 8.9515 8.3425 8.85727C8.56998 8.76305 8.77668 8.62494 8.95079 8.45083C9.1249 8.27672 9.26301 8.07002 9.35724 7.84253C9.45147 7.61505 9.49997 7.37123 9.49997 7.125C9.50002 7.05533 9.48066 6.98703 9.44406 6.92775C9.40747 6.86847 9.35508 6.82055 9.29278 6.78937ZM7.62497 8.25C6.73016 8.24901 5.8723 7.89311 5.23958 7.26039C4.60686 6.62767 4.25096 5.7698 4.24997 4.875C4.24989 4.6149 4.33995 4.36281 4.50481 4.16163C4.66967 3.96045 4.89914 3.82261 5.15418 3.77156L5.69231 4.84969L5.23434 5.53125C5.20012 5.58258 5.17909 5.64157 5.17312 5.70298C5.16715 5.76439 5.17643 5.82632 5.20012 5.88328C5.46843 6.52096 5.97572 7.02826 6.6134 7.29656C6.67054 7.32131 6.73294 7.33144 6.79497 7.32604C6.857 7.32064 6.91671 7.29988 6.96872 7.26562L7.65356 6.80906L8.73168 7.34719C8.68024 7.60252 8.5418 7.8321 8.33997 7.99674C8.13814 8.16139 7.88543 8.2509 7.62497 8.25ZM6.49997 1.125C5.65831 1.12482 4.83094 1.34254 4.0984 1.75698C3.36585 2.17142 2.75308 2.76846 2.31973 3.48998C1.88639 4.21151 1.64722 5.03293 1.62552 5.87431C1.60382 6.71569 1.80032 7.54835 2.1959 8.29125L1.66387 9.88734C1.6198 10.0195 1.61341 10.1613 1.6454 10.2969C1.6774 10.4325 1.74652 10.5564 1.84502 10.6549C1.94352 10.7534 2.06751 10.8226 2.20309 10.8546C2.33867 10.8866 2.48047 10.8802 2.61262 10.8361L4.20872 10.3041C4.86251 10.6518 5.58694 10.846 6.32701 10.872C7.06708 10.898 7.80334 10.755 8.4799 10.4539C9.15647 10.1529 9.75555 9.70164 10.2317 9.13448C10.7078 8.56731 11.0485 7.89913 11.2278 7.18066C11.4072 6.46218 11.4205 5.71228 11.2667 4.98789C11.113 4.2635 10.7963 3.58366 10.3405 2.99996C9.88483 2.41626 9.30213 1.94406 8.63667 1.61918C7.97121 1.29431 7.24049 1.1253 6.49997 1.125ZM6.49997 10.125C5.7748 10.1255 5.06236 9.93453 4.43465 9.57141C4.38869 9.54475 4.3376 9.52817 4.28475 9.52276C4.2319 9.51734 4.1785 9.52322 4.12809 9.54L2.37497 10.125L2.9595 8.37188C2.97635 8.3215 2.9823 8.26812 2.97697 8.21527C2.97163 8.16242 2.95513 8.11131 2.92856 8.06531C2.47386 7.27918 2.2913 6.36496 2.4092 5.46448C2.5271 4.564 2.93887 3.7276 3.58063 3.08503C4.22239 2.44245 5.05828 2.02963 5.9586 1.91059C6.85893 1.79155 7.77338 1.97296 8.56009 2.42666C9.3468 2.88037 9.96179 3.58102 10.3097 4.41991C10.6575 5.25881 10.7188 6.18906 10.4841 7.06635C10.2493 7.94365 9.73158 8.71895 9.01122 9.27197C8.29086 9.825 7.40813 10.1249 6.49997 10.125Z" fill="#CBD5E1"/>
</svg>
