<svg width="24" height="23" viewBox="0 0 24 23" fill="none" xmlns="http://www.w3.org/2000/svg">
<path d="M21.0745 6.75625C21.8795 8.16517 22.3375 9.78125 22.3375 11.5C22.3375 15.1474 20.2714 18.3347 17.198 20.0479L20.3557 11.3148C20.9451 9.90317 21.1415 8.77475 21.1415 7.77283C21.1415 7.40158 21.1166 7.05875 21.0745 6.75625ZM13.426 6.85158C14.046 6.82408 14.6067 6.75533 14.6067 6.75533C15.1644 6.68658 15.0993 5.90283 14.5425 5.93125C14.5425 5.93125 12.8606 6.055 11.7825 6.055C10.7628 6.055 9.05121 5.9175 9.05121 5.9175C8.49058 5.89 8.41775 6.70125 8.97933 6.72875C8.97933 6.72875 9.49683 6.78467 10.0575 6.81125L11.6675 11.0325L9.39621 17.5225L5.63092 6.825C6.25288 6.7975 6.8135 6.73333 6.8135 6.73333C7.37413 6.66458 7.308 5.88083 6.75121 5.912C6.75121 5.912 5.07796 6.0385 3.99696 6.0385C3.80529 6.0385 3.57721 6.03117 3.33571 6.02475C5.20638 3.3875 8.39188 1.61375 12 1.61375C14.692 1.61375 17.1415 2.59642 18.9824 4.21067C18.9383 4.20792 18.8952 4.20242 18.8473 4.20242C17.8315 4.20242 17.1108 5.0485 17.1108 5.95692C17.1108 6.77275 17.6024 7.463 18.1266 8.277C18.5205 8.937 18.9795 9.78308 18.9795 11.0059C18.9795 11.8447 18.6403 12.8338 18.1928 14.195L17.1625 17.4813L13.425 6.83875L13.426 6.85158ZM12 21.3853C10.9851 21.3853 10.0057 21.2451 9.079 20.9848L12.1811 12.3626L15.358 20.6923C15.381 20.7409 15.4059 20.7849 15.4328 20.8289C14.3594 21.1892 13.2046 21.3872 12 21.3872M1.66054 11.5C1.66054 10.0663 1.98254 8.70417 2.55658 7.47583L7.48625 20.3999C5.73995 19.5888 4.26752 18.324 3.2373 16.7501C2.20709 15.1763 1.66068 13.3569 1.66054 11.5ZM12 0.5C5.66063 0.5 0.5 5.43625 0.5 11.5C0.5 17.5638 5.66063 22.5 12 22.5C18.3394 22.5 23.5 17.5638 23.5 11.5C23.5 5.43625 18.3394 0.5 12 0.5Z" fill="#CBD5E1"/>
</svg>
