<svg width="15" height="15" viewBox="0 0 15 15" fill="none" xmlns="http://www.w3.org/2000/svg">
<path d="M14.781 13.7194C14.8507 13.789 14.906 13.8718 14.9437 13.9628C14.9814 14.0539 15.0008 14.1514 15.0008 14.25C15.0008 14.3485 14.9814 14.4461 14.9437 14.5372C14.906 14.6282 14.8507 14.7109 14.781 14.7806C14.7114 14.8503 14.6286 14.9056 14.5376 14.9433C14.4465 14.981 14.349 15.0004 14.2504 15.0004C14.1519 15.0004 14.0543 14.981 13.9632 14.9433C13.8722 14.9056 13.7895 14.8503 13.7198 14.7806L7.50042 8.5603L1.28104 14.7806C1.14031 14.9213 0.94944 15.0004 0.750417 15.0004C0.551394 15.0004 0.360523 14.9213 0.219792 14.7806C0.0790615 14.6399 3.92322e-09 14.449 0 14.25C-3.92322e-09 14.051 0.0790615 13.8601 0.219792 13.7194L6.4401 7.49999L0.219792 1.28061C0.0790615 1.13988 0 0.949013 0 0.74999C0 0.550967 0.0790615 0.360095 0.219792 0.219365C0.360523 0.0786343 0.551394 -0.000427246 0.750417 -0.000427246C0.94944 -0.000427246 1.14031 0.0786343 1.28104 0.219365L7.50042 6.43968L13.7198 0.219365C13.8605 0.0786343 14.0514 -0.00042725 14.2504 -0.000427246C14.4494 -0.000427242 14.6403 0.0786343 14.781 0.219365C14.9218 0.360095 15.0008 0.550967 15.0008 0.74999C15.0008 0.949013 14.9218 1.13988 14.781 1.28061L8.56073 7.49999L14.781 13.7194Z" fill="#CBD5E1"/>
</svg>
